<?xml version="1.0" encoding="UTF-8"?>
<svg id="Layer_1" xmlns="http://www.w3.org/2000/svg" xmlns:xlink="http://www.w3.org/1999/xlink" version="1.1" viewBox="0 0 99.4 99.2">
  <!-- Generator: Adobe Illustrator 29.6.1, SVG Export Plug-In . SVG Version: 2.1.1 Build 9)  -->
  <defs>
    <style>
      .st0 {
        fill: none;
      }

      .st1 {
        fill: url(#linear-gradient);
      }

      .st2 {
        clip-path: url(#clippath-1);
      }

      .st3 {
        clip-path: url(#clippath-3);
      }

      .st4 {
        clip-path: url(#clippath-4);
      }

      .st5 {
        clip-path: url(#clippath-2);
      }

      .st6 {
        fill: url(#New_Gradient_Swatch_41);
      }

      .st7 {
        fill: url(#New_Gradient_Swatch_51);
      }

      .st8 {
        fill: url(#New_Gradient_Swatch_61);
      }

      .st9 {
        fill: url(#New_Gradient_Swatch_5);
      }

      .st10 {
        fill: url(#New_Gradient_Swatch_3);
      }

      .st11 {
        fill: url(#New_Gradient_Swatch_4);
      }

      .st12 {
        fill: url(#New_Gradient_Swatch_6);
      }

      .st13 {
        clip-path: url(#clippath);
      }
    </style>
    <clipPath id="clippath">
      <polygon class="st0" points="12.1 21.7 12.1 29.5 49.7 7.9 87.2 29.5 87.2 21.7 49.7 0 12.1 21.7"/>
    </clipPath>
    <linearGradient id="linear-gradient" x1="128.4" y1="233.5" x2="130.6" y2="233.5" gradientTransform="translate(-4340.1 7930) scale(33.9 -33.9)" gradientUnits="userSpaceOnUse">
      <stop offset="0" stop-color="#003263"/>
      <stop offset="1" stop-color="#899bbc"/>
    </linearGradient>
    <clipPath id="clippath-1">
      <polygon class="st0" points="87.2 29.5 87.2 21.7 49.7 43.3 12.1 21.7 12.1 29.5 49.7 51.2 87.2 29.5"/>
    </clipPath>
    <linearGradient id="New_Gradient_Swatch_3" data-name="New Gradient Swatch 3" x1="128.4" y1="233.1" x2="130.6" y2="233.1" gradientTransform="translate(-4340.1 7939.8) scale(33.9 -33.9)" gradientUnits="userSpaceOnUse">
      <stop offset="0" stop-color="#899bbc"/>
      <stop offset="1" stop-color="#003263"/>
    </linearGradient>
    <linearGradient id="New_Gradient_Swatch_4" data-name="New Gradient Swatch 4" x1="12.1" y1="52.4" x2="87.2" y2="52.4" gradientUnits="userSpaceOnUse">
      <stop offset="0" stop-color="#74d0f1"/>
      <stop offset=".5" stop-color="#27aae1"/>
      <stop offset="1" stop-color="#118ab5"/>
    </linearGradient>
    <clipPath id="clippath-2">
      <polygon class="st11" points="87.2 45.5 87.2 37.6 49.7 59.3 12.1 37.6 12.1 45.5 49.7 67.2 87.2 45.5"/>
    </clipPath>
    <linearGradient id="New_Gradient_Swatch_41" data-name="New Gradient Swatch 4" x1="128.4" y1="232.9" x2="130.6" y2="232.9" gradientTransform="translate(-4340.1 7947) scale(33.9 -33.9)" xlink:href="#New_Gradient_Swatch_4"/>
    <linearGradient id="New_Gradient_Swatch_5" data-name="New Gradient Swatch 5" x1="12.1" y1="68.4" x2="87.2" y2="68.4" gradientUnits="userSpaceOnUse">
      <stop offset="0" stop-color="#aed67e"/>
      <stop offset=".6" stop-color="#76bc21"/>
      <stop offset="1" stop-color="#5a8a3d"/>
    </linearGradient>
    <clipPath id="clippath-3">
      <polygon class="st9" points="87.2 61.5 87.2 53.6 49.7 75.3 12.1 53.6 12.1 61.5 49.7 83.1 87.2 61.5"/>
    </clipPath>
    <linearGradient id="New_Gradient_Swatch_51" data-name="New Gradient Swatch 5" x1="128.4" y1="232.6" x2="130.6" y2="232.6" gradientTransform="translate(-4340.1 7954.3) scale(33.9 -33.9)" xlink:href="#New_Gradient_Swatch_5"/>
    <linearGradient id="New_Gradient_Swatch_6" data-name="New Gradient Swatch 6" x1="12.1" y1="84.4" x2="87.2" y2="84.4" gradientUnits="userSpaceOnUse">
      <stop offset="0" stop-color="#f9db8f"/>
      <stop offset=".5" stop-color="#fdcc3a"/>
      <stop offset="1" stop-color="#e4ac24"/>
    </linearGradient>
    <clipPath id="clippath-4">
      <polygon class="st12" points="87.2 77.5 87.2 69.7 49.7 91.3 12.1 69.7 12.1 77.5 49.7 99.2 87.2 77.5"/>
    </clipPath>
    <linearGradient id="New_Gradient_Swatch_61" data-name="New Gradient Swatch 6" x1="128.4" y1="232.1" x2="130.6" y2="232.1" gradientTransform="translate(-4340.1 7954.3) scale(33.9 -33.9)" xlink:href="#New_Gradient_Swatch_6"/>
  </defs>
  <g class="st13">
    <rect class="st1" x="12.1" width="75.1" height="29.5"/>
  </g>
  <g class="st2">
    <rect class="st10" x="12.1" y="21.7" width="75.1" height="29.5"/>
  </g>
  <g>
    <polygon class="st11" points="87.2 45.5 87.2 37.6 49.7 59.3 12.1 37.6 12.1 45.5 49.7 67.2 87.2 45.5"/>
    <g class="st5">
      <rect class="st6" x="12.1" y="37.6" width="75.1" height="29.5"/>
    </g>
  </g>
  <g>
    <polygon class="st9" points="87.2 61.5 87.2 53.6 49.7 75.3 12.1 53.6 12.1 61.5 49.7 83.1 87.2 61.5"/>
    <g class="st3">
      <rect class="st7" x="12.1" y="53.6" width="75.1" height="29.5"/>
    </g>
  </g>
  <g>
    <polygon class="st12" points="87.2 77.5 87.2 69.7 49.7 91.3 12.1 69.7 12.1 77.5 49.7 99.2 87.2 77.5"/>
    <g class="st4">
      <rect class="st8" x="12.1" y="69.7" width="75.1" height="29.5"/>
    </g>
  </g>
</svg>